<?xml version="1.0" encoding="utf-8"?>
<!-- Generator: Adobe Illustrator 20.1.0, SVG Export Plug-In . SVG Version: 6.00 Build 0)  -->
<svg version="1.1" id="Layer_1" xmlns="http://www.w3.org/2000/svg" xmlns:xlink="http://www.w3.org/1999/xlink" x="0px" y="0px"
	 viewBox="0 0 34.7 38.7" style="enable-background:new 0 0 34.7 38.7;" xml:space="preserve">
<style type="text/css">
	.st0{fill:#3D5A98;}
	.st1{fill:#FFFFFF;}
</style>
<g>
	<path id="Blue_1_" class="st0" d="M28.4,32.1c0.8,0,1.4-0.6,1.4-1.4V8.6c0-0.8-0.6-1.4-1.4-1.4H6.3c-0.8,0-1.4,0.6-1.4,1.4v22.1
		c0,0.8,0.6,1.4,1.4,1.4C6.3,32.1,28.4,32.1,28.4,32.1z"/>
	<path id="f" class="st1" d="M22.1,32.1v-9.6h3.2l0.5-3.8h-3.7v-2.4c0-1.1,0.3-1.8,1.9-1.8h2v-3.4c-0.3,0-1.5-0.1-2.9-0.1
		c-2.9,0-4.8,1.8-4.8,5v2.8h-3.2v3.8h3.2v9.6L22.1,32.1L22.1,32.1z"/>
</g>
</svg>
