<?xml version="1.0" encoding="utf-8"?>
<!-- Generator: Adobe Illustrator 20.1.0, SVG Export Plug-In . SVG Version: 6.00 Build 0)  -->
<svg version="1.1" id="Blue" xmlns="http://www.w3.org/2000/svg" xmlns:xlink="http://www.w3.org/1999/xlink" x="0px" y="0px"
	 viewBox="0 0 34.7 38.7" style="enable-background:new 0 0 34.7 38.7;" xml:space="preserve">
<style type="text/css">
	.st0{fill:url(#SVGID_1_);}
	.st1{fill:url(#SVGID_2_);}
	.st2{fill:#FFFFFF;}
</style>
<title>Twitter_Logo_White-on-Blue</title>
<g>
	
		<radialGradient id="SVGID_1_" cx="-265.3024" cy="-305.3029" r="12.4511" gradientTransform="matrix(0 -1.982 -1.8439 0 -551.3356 -491.8062)" gradientUnits="userSpaceOnUse">
		<stop  offset="0" style="stop-color:#FFDD55"/>
		<stop  offset="0.1" style="stop-color:#FFDD55"/>
		<stop  offset="0.5" style="stop-color:#FF543E"/>
		<stop  offset="1" style="stop-color:#C837AB"/>
	</radialGradient>
	<path class="st0" d="M17.5,7.2c-5.2,0-6.7,0-7,0C9.4,7.3,8.7,7.5,8,7.8c-0.6,0.3-1,0.6-1.4,1c-0.8,0.8-1.3,1.8-1.4,3
		C5,12.5,5,12.6,5,15.6c0,1,0,2.3,0,4c0,5.2,0,6.7,0,7c0.1,1,0.2,1.7,0.6,2.4c0.7,1.4,1.9,2.4,3.4,2.8c0.5,0.1,1.1,0.2,1.8,0.2
		c0.3,0,3.5,0,6.6,0s6.3,0,6.6,0c0.8,0,1.3-0.1,1.9-0.2c1.5-0.4,2.7-1.4,3.4-2.8c0.3-0.7,0.5-1.4,0.6-2.4c0-0.2,0-3.6,0-7.1
		c0-3.4,0-6.8,0-7c-0.1-1-0.2-1.7-0.6-2.4c-0.3-0.6-0.6-1-1.1-1.5c-0.8-0.8-1.8-1.3-3-1.4c-0.6-0.1-0.7-0.1-3.7-0.1H17.5z"/>
	
		<radialGradient id="SVGID_2_" cx="342.9238" cy="5.5163" r="12.4511" gradientTransform="matrix(0.1739 0.8687 3.5818 -0.7172 -78.582 -284.9548)" gradientUnits="userSpaceOnUse">
		<stop  offset="0" style="stop-color:#3771C8"/>
		<stop  offset="0.128" style="stop-color:#3771C8"/>
		<stop  offset="1" style="stop-color:#6600FF;stop-opacity:0"/>
	</radialGradient>
	<path class="st1" d="M17.5,7.2c-5.2,0-6.7,0-7,0C9.4,7.3,8.7,7.5,8,7.8c-0.6,0.3-1,0.6-1.4,1c-0.8,0.8-1.3,1.8-1.4,3
		C5,12.5,5,12.6,5,15.6c0,1,0,2.3,0,4c0,5.2,0,6.7,0,7c0.1,1,0.2,1.7,0.6,2.4c0.7,1.4,1.9,2.4,3.4,2.8c0.5,0.1,1.1,0.2,1.8,0.2
		c0.3,0,3.5,0,6.6,0s6.3,0,6.6,0c0.8,0,1.3-0.1,1.9-0.2c1.5-0.4,2.7-1.4,3.4-2.8c0.3-0.7,0.5-1.4,0.6-2.4c0-0.2,0-3.6,0-7.1
		c0-3.4,0-6.8,0-7c-0.1-1-0.2-1.7-0.6-2.4c-0.3-0.6-0.6-1-1.1-1.5c-0.8-0.8-1.8-1.3-3-1.4c-0.6-0.1-0.7-0.1-3.7-0.1H17.5z"/>
	<path class="st2" d="M17.4,10.5c-2.5,0-2.8,0-3.8,0.1c-1,0-1.6,0.2-2.2,0.4c-0.6,0.2-1.1,0.5-1.6,1.1c-0.5,0.5-0.8,1-1.1,1.6
		c-0.2,0.6-0.4,1.3-0.4,2.2c0,1-0.1,1.3-0.1,3.8s0,2.8,0.1,3.8c0,1,0.2,1.6,0.4,2.2c0.2,0.6,0.5,1.1,1.1,1.6c0.5,0.5,1,0.8,1.6,1.1
		c0.6,0.2,1.3,0.4,2.2,0.4c1,0,1.3,0.1,3.8,0.1c2.5,0,2.8,0,3.8-0.1c1,0,1.6-0.2,2.2-0.4c0.6-0.2,1.1-0.5,1.6-1.1
		c0.5-0.5,0.8-1,1.1-1.6c0.2-0.6,0.4-1.3,0.4-2.2c0-1,0.1-1.3,0.1-3.8s0-2.8-0.1-3.8c0-1-0.2-1.6-0.4-2.2c-0.2-0.6-0.5-1.1-1.1-1.6
		c-0.5-0.5-1-0.8-1.6-1.1c-0.6-0.2-1.3-0.4-2.2-0.4C20.3,10.5,19.9,10.5,17.4,10.5L17.4,10.5z M16.6,12.1c0.2,0,0.5,0,0.8,0
		c2.5,0,2.7,0,3.7,0.1c0.9,0,1.4,0.2,1.7,0.3c0.4,0.2,0.7,0.4,1.1,0.7c0.3,0.3,0.5,0.6,0.7,1.1c0.1,0.3,0.3,0.8,0.3,1.7
		c0,1,0.1,1.3,0.1,3.7s0,2.7-0.1,3.7c0,0.9-0.2,1.4-0.3,1.7c-0.2,0.4-0.4,0.7-0.7,1.1c-0.3,0.3-0.6,0.5-1.1,0.7
		c-0.3,0.1-0.8,0.3-1.7,0.3c-1,0-1.3,0.1-3.7,0.1c-2.5,0-2.7,0-3.7-0.1c-0.9,0-1.4-0.2-1.7-0.3c-0.4-0.2-0.7-0.4-1.1-0.7
		c-0.3-0.3-0.5-0.6-0.7-1.1c-0.1-0.3-0.3-0.8-0.3-1.7c0-1-0.1-1.3-0.1-3.7s0-2.7,0.1-3.7c0-0.9,0.2-1.4,0.3-1.7
		c0.2-0.4,0.4-0.7,0.7-1.1c0.3-0.3,0.6-0.5,1.1-0.7c0.3-0.1,0.8-0.3,1.7-0.3C14.6,12.1,14.9,12.1,16.6,12.1L16.6,12.1z M22.4,13.6
		c-0.6,0-1.1,0.5-1.1,1.1c0,0.6,0.5,1.1,1.1,1.1c0.6,0,1.1-0.5,1.1-1.1C23.5,14.1,23,13.6,22.4,13.6L22.4,13.6z M17.4,14.9
		c-2.6,0-4.7,2.1-4.7,4.7s2.1,4.7,4.7,4.7s4.7-2.1,4.7-4.7S20.1,14.9,17.4,14.9L17.4,14.9z M17.4,16.6c1.7,0,3.1,1.4,3.1,3.1
		c0,1.7-1.4,3.1-3.1,3.1c-1.7,0-3.1-1.4-3.1-3.1C14.4,18,15.8,16.6,17.4,16.6z"/>
</g>
</svg>
