<?xml version="1.0" encoding="utf-8"?>
<!-- Generator: Adobe Illustrator 20.1.0, SVG Export Plug-In . SVG Version: 6.00 Build 0)  -->
<svg version="1.1" id="Layer_1" xmlns="http://www.w3.org/2000/svg" xmlns:xlink="http://www.w3.org/1999/xlink" x="0px" y="0px"
	 viewBox="0 0 45 47" style="enable-background:new 0 0 45 47;" xml:space="preserve">
<path d="M20.7,6.4l9.5,5.6l-9.5,5.5v-2.8c0,0-5.6,0.9-7.3,6.3c-0.9,2.8-0.3,5.4,0.4,6.9c1.3,2.7,4.4,5.5,8.2,5.5
	c4.7,0,7.1-2.6,8.1-4.2c1.7-2.5,1.7-5.3,1.7-5.3l5.2,0c0,0-0.1,4.3-1.9,7.2c-1.1,1.9-5.1,7.5-12.7,7.4c-2.8,0-9.2-0.9-13.1-8.2
	c-1.1-2-2.5-7.3-0.6-11.7c3.8-9,12.1-9.4,12.1-9.4L20.7,6.4z"/>
</svg>
