<?xml version="1.0" encoding="utf-8"?>
<!-- Generator: Adobe Illustrator 20.1.0, SVG Export Plug-In . SVG Version: 6.00 Build 0)  -->
<svg version="1.1" id="Layer_1" xmlns="http://www.w3.org/2000/svg" xmlns:xlink="http://www.w3.org/1999/xlink" x="0px" y="0px"
	 viewBox="0 0 318 343" style="enable-background:new 0 0 318 343;" xml:space="preserve">
<path d="M142,4.5L240,62l-98,56.5V90c0,0-57.3,9.5-75.5,64.5c-9.6,29.2-3.5,55.5,4,71.5c13,27.7,45.7,57,84.5,57
	c48,0,73.3-26.8,84-43c17.2-26.1,17.5-54.5,17.5-54.5L310,186c0,0-1,44-19.7,74.3C278.6,279.4,238,338,159,337
	c-29.3-0.4-95.3-9.5-135.3-84.3C12.8,232.4-1.8,177.5,17.5,132c39.2-92.3,125-96.5,125-96.5L142,4.5z"/>
</svg>
