<?xml version="1.0" encoding="utf-8"?>
<!-- Generator: Adobe Illustrator 20.1.0, SVG Export Plug-In . SVG Version: 6.00 Build 0)  -->
<svg version="1.1" id="Blue" xmlns="http://www.w3.org/2000/svg" xmlns:xlink="http://www.w3.org/1999/xlink" x="0px" y="0px"
	 viewBox="0 0 34.7 38.7" style="enable-background:new 0 0 34.7 38.7;" xml:space="preserve">
<style type="text/css">
	.st0{fill:#1DA1F2;}
	.st1{fill:#FFFFFF;}
</style>
<title>Twitter_Logo_White-on-Blue</title>
<g id="Dark_Blue">
	<rect x="4.9" y="7.2" class="st0" width="24.9" height="24.9"/>
</g>
<path class="st1" d="M14.4,26c5.9,0,9.1-4.9,9.1-9.1c0-0.1,0-0.3,0-0.4c0.6-0.5,1.2-1,1.6-1.7c-0.6,0.3-1.2,0.4-1.8,0.5
	c0.7-0.4,1.2-1,1.4-1.8c-0.6,0.4-1.3,0.6-2,0.8c-1.2-1.3-3.2-1.3-4.5-0.1c-0.8,0.8-1.2,1.9-0.9,3c-2.6-0.1-5-1.3-6.6-3.3
	c-0.8,1.5-0.4,3.3,1,4.3c-0.5,0-1-0.2-1.4-0.4c0,0,0,0,0,0c0,1.5,1.1,2.8,2.6,3.1c-0.5,0.1-1,0.1-1.4,0.1c0.4,1.3,1.6,2.2,3,2.2
	c-1.1,0.9-2.5,1.4-4,1.4c-0.3,0-0.5,0-0.8,0C11,25.5,12.7,26,14.4,26"/>
</svg>
